PathFileType	4	(X/Y/Z)	C:/Users/opensim2020/Desktop/walking_exp_matlab/subject03_walking13_straight_04.trc																																																																																																																																								
DataRate	CameraRate	NumFrames	NumMarkers	Units	OrigDataRate	OrigDataStartFrame	OrigNumFrames																																																																																																																																				
100	100	4	46	mm	100	2212	200																																																																																																																																				
Frame#	Time	LFHD			RFHD			LBHD			RBHD			C7			T10			CLAV			STRN			RBAK			LSHO			LUPA			LELB			LFRM			LWRA			LWRB			LFIN			RSHO			RUPA			RELB			RFRM			RWRA			RWRB			RFIN			LASI			RASI			LPSI			RPSI			LTHI			LKNE			LTIB			LANK			LHEE			LTOE			RTHI			RKNE			RTIB			RANK			RHEE			RTOE			*39			*40			*41			*42			*43			*44			*45		
		X1	Y1	Z1	X2	Y2	Z2	X3	Y3	Z3	X4	Y4	Z4	X5	Y5	Z5	X6	Y6	Z6	X7	Y7	Z7	X8	Y8	Z8	X9	Y9	Z9	X10	Y10	Z10	X11	Y11	Z11	X12	Y12	Z12	X13	Y13	Z13	X14	Y14	Z14	X15	Y15	Z15	X16	Y16	Z16	X17	Y17	Z17	X18	Y18	Z18	X19	Y19	Z19	X20	Y20	Z20	X21	Y21	Z21	X22	Y22	Z22	X23	Y23	Z23	X24	Y24	Z24	X25	Y25	Z25	X26	Y26	Z26	X27	Y27	Z27	X28	Y28	Z28	X29	Y29	Z29	X30	Y30	Z30	X31	Y31	Z31	X32	Y32	Z32	X33	Y33	Z33	X34	Y34	Z34	X35	Y35	Z35	X36	Y36	Z36	X37	Y37	Z37	X38	Y38	Z38	X39	Y39	Z39	X40	Y40	Z40	X41	Y41	Z41	X42	Y42	Z42	X43	Y43	Z43	X44	Y44	Z44	X45	Y45	Z45	X46	Y46	Z46
																																																																																																																																											
51	0.5	-770.39441	1623.94092	-1474.84656	-784.86829	1631.34094	-1343.08887	-899.43597	1581.80676	-1484.35693	-908.04974	1588.24463	-1353.41394	-937.71997	1420.25061	-1416.72095	-959.80432	1105.10193	-1423.25537	-813.34277	1348.11304	-1416.09033	-763.30444	1185.36438	-1424.99426	-983.34015	1239.22473	-1322.40259	-865.97314	1386.47864	-1571.35608	-861.68524	1194.9834	-1650.73975	-833.40405	1077.97217	-1667.23523	-746.0423	987.41968	-1659.72986	-660.94904	912.88043	-1620.11731	-683.71753	892.07996	-1665.35034	-614.67218	848.99817	-1653.07068	-862.0387	1369.36475	-1257.15088	-855.81818	1147.46387	-1182.0282	-840.79749	1035.63232	-1168.19641	-827.77271	899.24615	-1163.90417	-802.48956	802.10101	-1199.07349	-831.61273	798.75958	-1152.40308	-814.95325	725.33893	-1164.06189	-791.40137	942.1792	-1542.67358	-791.20459	949.31976	-1304.02466	-953.35016	960.47375	-1492.2887	-952.91852	976.45923	-1344.20959	-809.43066	637.28131	-1594.90857	-775.44226	460.8222	-1577.92053	-928.87549	338.04526	-1574.38049	-1082.76917	200.52341	-1533.89209	-1133.4989	205.97223	-1492.09888	-1016.36584	66.58394	-1520.0592	-825.82959	653.87061	-1262.89502	-794.81702	479.31363	-1306.27515	-835.62506	288.6918	-1305.02222	-858.64655	74.76978	-1357.802	-902.39484	42.894	-1408.0293	-716.42542	37.10056	-1380.18909	NaN	NaN	NaN	NaN	NaN	NaN	NaN	NaN	NaN	NaN	NaN	NaN	NaN	NaN	NaN	NaN	NaN	NaN	NaN	NaN	NaN
52	0.51	-758.16528	1624.67078	-1475.02136	-772.2262	1632.00647	-1343.23706	-887.25696	1582.82861	-1484.20422	-895.64026	1589.19055	-1353.33203	-925.74231	1421.24219	-1416.41797	-948.19916	1106.08813	-1422.25354	-801.39282	1349.05872	-1416.35388	-751.76276	1186.30164	-1425.11206	-971.03949	1240.40967	-1321.55005	-854.91833	1387.22339	-1571.43616	-852.75885	1194.90698	-1649.72339	-825.33685	1077.37061	-1665.71497	-740.27905	983.88385	-1658.67651	-657.45441	906.4469	-1619.67212	-680.97736	886.69702	-1665.02014	-613.95142	840.36951	-1652.46008	-849.37531	1370.57068	-1257.13916	-839.97369	1148.85608	-1181.85547	-823.05322	1037.28308	-1168.09607	-807.57587	901.18658	-1163.83472	-781.31006	804.52179	-1198.57727	-809.51019	800.72797	-1152.25098	-790.8089	728.09418	-1163.60315	-780.10516	943.98102	-1541.90613	-779.35461	950.24664	-1303.50073	-941.84711	961.83038	-1491.65588	-941.00092	977.45856	-1343.48999	-791.81958	639.44312	-1594.07104	-753.30865	463.95306	-1576.52271	-902.69586	336.31628	-1572.59851	-1052.2832	193.82092	-1532.01855	-1103.80054	196.40753	-1490.37878	-977.65674	64.65276	-1516.70789	-818.17322	654.06915	-1263.40967	-790.60687	478.8736	-1306.40833	-833.52576	288.88455	-1305.1676	-858.55566	74.93453	-1358.17383	-902.26013	43.31834	-1408.42029	-716.28406	36.93644	-1380.41992	-844.8642	1689.09412	-1435.23718	NaN	NaN	NaN	NaN	NaN	NaN	NaN	NaN	NaN	NaN	NaN	NaN	NaN	NaN	NaN	NaN	NaN	NaN
53	0.52	-745.98163	1625.26672	-1475.28784	-759.72241	1632.55933	-1343.39661	-875.16779	1583.67749	-1484.17407	-883.1153	1589.92175	-1352.98621	-913.70813	1422.02112	-1416.11792	-936.57745	1106.95776	-1421.38672	-789.52051	1349.87024	-1416.67065	-740.13629	1187.08533	-1425.36804	-958.83392	1241.59827	-1320.75781	-843.8446	1387.84619	-1571.50208	-843.54272	1194.7699	-1648.69617	-817.26514	1076.68628	-1664.28772	-734.7735	980.23376	-1657.67969	-655.11932	899.18677	-1618.90454	-678.97784	881.07935	-1664.91614	-613.87482	831.49719	-1652.09399	-836.77356	1371.72937	-1257.15686	-824.2821	1150.203	-1181.70557	-805.33258	1039.01489	-1168.11316	-787.40356	903.2359	-1163.80981	-760.04852	807.06287	-1199.04199	-787.22321	802.83484	-1152.25793	-766.19592	730.90948	-1163.39709	-768.5752	945.71307	-1541.22375	-767.89526	951.04126	-1303.39001	-930.31995	963.14478	-1491.0282	-929.10333	978.36371	-1342.78052	-774.63879	641.62561	-1593.23145	-731.72595	467.17023	-1574.96594	-876.35175	334.03003	-1570.74731	-1020.52637	185.94672	-1529.48303	-1072.79993	185.59846	-1488.3385	-938.02771	62.16275	-1513.45361	-809.47717	654.22357	-1263.82446	-786.47437	478.48254	-1306.50928	-831.62726	289.18423	-1305.25488	-858.3374	75.1865	-1358.25281	-902.1051	43.84069	-1408.62451	-716.30029	36.78889	-1380.19531	-832.48999	1689.79724	-1435.38879	NaN	NaN	NaN	NaN	NaN	NaN	NaN	NaN	NaN	NaN	NaN	NaN	NaN	NaN	NaN	NaN	NaN	NaN
54	0.53	-733.80273	1625.69434	-1475.52649	-747.07153	1632.67432	-1343.72998	-862.85059	1584.32471	-1483.73499	-870.83179	1590.75598	-1353.18091	-901.78668	1422.70996	-1415.83923	-925.09802	1107.69873	-1420.60828	-777.65533	1350.49084	-1416.98462	-728.34131	1187.73975	-1425.62964	-946.7085	1242.77332	-1319.96643	-832.65167	1388.34021	-1571.56458	-834.17578	1194.63159	-1647.73779	-809.12799	1075.92383	-1662.86108	-729.89056	976.78375	-1657.01599	-652.63593	892.30444	-1618.69885	-677.49707	875.40222	-1664.80798	-614.60596	822.48303	-1651.9729	-824.11957	1372.67737	-1257.27087	-808.81586	1151.50378	-1181.56592	-787.76849	1040.71631	-1168.10974	-767.14258	905.30157	-1163.88586	-738.24609	809.79462	-1199.35193	-764.89899	805.09564	-1152.3429	-741.88513	734.03406	-1163.27673	-756.83777	947.24237	-1540.50342	-756.26355	951.49445	-1303.00854	-918.80988	964.40137	-1490.47424	-917.26837	979.14008	-1342.11377	-757.84619	643.72424	-1592.43799	-710.69043	470.41119	-1573.25378	-849.99713	331.22397	-1568.77515	-988.0592	177.30846	-1527.19604	-1040.56287	173.91364	-1486.16541	-897.90997	59.70902	-1510.68176	-802.28973	654.43475	-1263.82825	-782.54114	478.10815	-1306.51343	-829.73969	289.46695	-1305.31409	-858.1217	75.5289	-1358.401	-902.06036	44.30465	-1408.74475	-716.16693	36.73783	-1380.15735	NaN	NaN	NaN	NaN	NaN	NaN	NaN	NaN	NaN	NaN	NaN	NaN	NaN	NaN	NaN	NaN	NaN	NaN	NaN	NaN	NaN
